<svg xmlns="http://www.w3.org/2000/svg" xmlns:xlink="http://www.w3.org/1999/xlink" id="Layer_1" width="200" height="200" x="0" y="0" enable-background="new 0 0 200 200" version="1.1" viewBox="0 0 200 200" xml:space="preserve"><path fill="#FFF" fill-rule="evenodd" d="M174.127,119.198h-54.929v54.929	c0,10.121-8.189,18.311-18.31,18.311c-10.111,0-18.31-8.189-18.31-18.311v-54.929H27.651c-10.111,0-18.31-8.189-18.31-18.31	c0-10.111,8.199-18.31,18.31-18.31h54.928V27.651c0-10.113,8.198-18.31,18.31-18.31c10.12,0,18.31,8.197,18.31,18.31v54.928h54.929	c10.121,0,18.311,8.198,18.311,18.31C192.438,111.009,184.248,119.198,174.127,119.198z" clip-rule="evenodd"/></svg>