<svg xmlns="http://www.w3.org/2000/svg" xmlns:xlink="http://www.w3.org/1999/xlink" id="Layer_1" width="200" height="200" x="0" y="0" enable-background="new 0 0 200 200" version="1.1" viewBox="0 0 200 200" xml:space="preserve"><path fill="#9197A3" fill-rule="evenodd" d="M126.845,100.98l60.229,60.229c7.144,7.144,7.144,18.72,0,25.864	c-7.145,7.144-18.721,7.144-25.864,0l-60.229-60.229l-60.229,60.229c-7.145,7.144-18.719,7.144-25.865,0	c-7.145-7.145-7.145-18.721,0-25.864l60.23-60.229l-60.23-60.229c-7.145-7.145-7.145-18.719,0-25.865	c7.146-7.145,18.72-7.145,25.865,0l60.229,60.23l60.229-60.23c7.144-7.145,18.72-7.145,25.864,0c7.144,7.146,7.144,18.72,0,25.865	L126.845,100.98z" clip-rule="evenodd"/></svg>