<svg xmlns="http://www.w3.org/2000/svg" xmlns:xlink="http://www.w3.org/1999/xlink" id="Layer_1" width="200" height="200" x="0" y="0" enable-background="new 0 0 200 200" version="1.1" viewBox="0 0 200 200" xml:space="preserve"><path fill="#E9EAEE" fill-rule="evenodd" d="M180.188,111.244H22.771c-6.215,0-11.244-5.029-11.244-11.245	c0-6.209,5.028-11.244,11.244-11.244h157.417c6.214,0,11.243,5.035,11.243,11.244C191.432,106.215,186.402,111.244,180.188,111.244z M180.188,55.024H22.771c-6.215,0-11.244-5.035-11.244-11.245c0-6.209,5.028-11.244,11.244-11.244h157.417	c6.214,0,11.243,5.035,11.243,11.244C191.432,49.989,186.402,55.024,180.188,55.024z M22.771,144.976h157.417	c6.214,0,11.243,5.029,11.243,11.244c0,6.216-5.029,11.244-11.243,11.244H22.771c-6.215,0-11.244-5.028-11.244-11.244	C11.528,150.005,16.556,144.976,22.771,144.976z" clip-rule="evenodd"/></svg>