<svg xmlns="http://www.w3.org/2000/svg" xmlns:xlink="http://www.w3.org/1999/xlink" id="Layer_1" width="200" height="200" x="0" y="0" enable-background="new 0 0 200 200" version="1.1" viewBox="0 0 200 200" xml:space="preserve"><path fill="#FFF" fill-rule="evenodd" d="M132.869,100.368l52.707,52.702c8.976,8.982,8.976,23.527,0,32.506	c-8.982,8.976-23.527,8.976-32.506,0l-52.702-52.707l-52.706,52.707c-8.979,8.976-23.524,8.976-32.502,0	c-8.979-8.979-8.979-23.523,0-32.506l52.704-52.702L15.161,47.664c-8.979-8.98-8.979-23.525,0-32.503	c8.978-8.979,23.523-8.979,32.502,0l52.706,52.704l52.702-52.704c8.979-8.979,23.523-8.979,32.506,0	c8.976,8.978,8.976,23.523,0,32.503L132.869,100.368z" clip-rule="evenodd"/></svg>